<svg width="31" height="31" viewBox="0 0 31 31" fill="none" xmlns="http://www.w3.org/2000/svg">
<g id="healthicons:vespa-motorcycle">
<g id="Group">
<path id="Vector" d="M18.3318 8.90755L15.8293 8.46755L16.0455 7.2363L18.6305 7.69067C18.8235 7.36192 19.0991 7.08935 19.43 6.90001C19.7609 6.71067 20.1355 6.61114 20.5168 6.6113H22.9449C23.1574 6.6113 23.3293 6.78317 23.3293 6.99567V10.6019C23.3293 10.8144 23.1568 10.9863 22.9449 10.9863H20.5168C19.9554 10.9864 19.4155 10.7706 19.0088 10.3836C18.6021 9.99671 18.3597 9.46822 18.3318 8.90755Z" fill="black"/>
<path id="Vector_2" fill-rule="evenodd" clip-rule="evenodd" d="M19.4574 11.9632L18.8761 16.6113H14.5793V15.8113C14.5793 15.5625 14.343 15.3613 14.0518 15.3613H9.008C5.52675 15.3613 2.70425 17.7675 2.70425 20.7363C2.70425 20.8738 2.8355 20.9863 2.998 20.9863H5.843C5.91971 21.8414 6.31361 22.6368 6.94721 23.2161C7.58081 23.7954 8.40825 24.1166 9.26675 24.1166C10.1253 24.1166 10.9527 23.7954 11.5863 23.2161C12.2199 22.6368 12.6138 21.8414 12.6905 20.9863H13.2593C13.283 20.9863 13.3061 20.9863 13.3293 20.985V20.9863H19.808C19.9343 21.4113 20.2974 21.6832 20.6943 21.7675C20.9593 22.562 21.5053 23.2323 22.2296 23.6527C22.9539 24.0731 23.8068 24.2146 24.6281 24.0506C25.4494 23.8866 26.1826 23.4285 26.6899 22.7622C27.1973 22.0958 27.444 21.2672 27.3836 20.4319C27.6618 20.1419 27.8018 19.7163 27.6305 19.2557C27.4339 18.7277 27.1296 18.2465 26.7371 17.8424C26.3445 17.4384 25.8722 17.1204 25.3502 16.9086C24.8282 16.6969 24.2678 16.596 23.7047 16.6124C23.1416 16.6287 22.5881 16.762 22.0793 17.0038V12.2363H20.5168C20.1461 12.2369 19.7815 12.1429 19.4574 11.9632ZM10.798 20.9863H7.7355C7.80723 21.3395 7.99886 21.6571 8.27792 21.8852C8.55699 22.1133 8.90633 22.2379 9.26675 22.2379C9.62718 22.2379 9.97652 22.1133 10.2556 21.8852C10.5347 21.6571 10.7263 21.3395 10.798 20.9863ZM22.638 21.5163C22.8044 21.776 23.0439 21.9807 23.3264 22.1045C23.6088 22.2284 23.9216 22.2659 24.2254 22.2124C24.5291 22.1589 24.8103 22.0167 25.0334 21.8038C25.2565 21.5908 25.4116 21.3166 25.4793 21.0157L22.638 21.5163Z" fill="black"/>
<path id="Vector_3" d="M5.9355 12.8613C5.94765 12.8272 5.96078 12.7934 5.97488 12.76L5.9355 12.8613ZM5.9355 12.8613C5.86675 13.0569 5.82925 13.2675 5.82925 13.4863V14.1113H15.2043V13.4863C15.2043 13.2757 15.1699 13.0738 15.1055 12.885L15.098 12.8613C14.9686 12.4956 14.7291 12.1791 14.4123 11.9552C14.0955 11.7313 13.7171 11.6112 13.3293 11.6113H7.70425C7.33564 11.6112 6.97518 11.7198 6.66793 11.9234C6.36068 12.1271 6.12027 12.4168 5.97675 12.7563" fill="black"/>
</g>
</g>
</svg>
